<?xml version="1.0" encoding="utf-8"?>
<!-- Generator: Adobe Illustrator 25.2.3, SVG Export Plug-In . SVG Version: 6.00 Build 0)  -->
<svg version="1.1" id="Layer_1" xmlns="http://www.w3.org/2000/svg" xmlns:xlink="http://www.w3.org/1999/xlink" x="0px" y="0px"
	 viewBox="0 0 184.5 142.4" style="enable-background:new 0 0 184.5 142.4;" xml:space="preserve">
<style type="text/css">
	.st0{fill:#1C1C1C;}
	.st1{fill:#DAA159;}
	.st2{font-family:'Montserrat-Regular';}
	.st3{font-size:6.71px;}
</style>
<path class="st0" d="M19.5,109.6c0-0.3,0-0.7,0.2-1l0.7,0.7c0,0.1,0,0.1,0,0.2h0.3l0.1-0.3c0.1,0.5,0.1,1-0.1,1.5c0-0.1,0-0.2,0-0.3
	h-0.3v0.2c-0.2,0.2-0.4,0.5-0.7,0.7c-0.1-0.3-0.2-0.7-0.2-1.1L19.5,109.6z"/>
<path class="st0" d="M169.5,109.8L169.5,109.8c-0.7-0.9-1.8-1.3-2.9-0.9c-0.2,0.4-0.3,0.8-0.4,1.2c0.3,0.2,0.6,0.4,0.9,0.5
	c-0.1,0.2-0.2,0.3-0.2,0.5c-0.8-0.3-1.6-0.5-2.4-0.7c0-0.1,0-0.2,0.1-0.2c0-0.1,0-0.2,0-0.3c0.4,0.1,0.7,0.1,1.1,0.1
	c0.1-0.4,0.2-0.8,0.3-1.2c-0.7-0.9-1.8-1.3-2.9-0.9c-0.2,0.4-0.3,0.8-0.4,1.2c0.3,0.2,0.7,0.4,1,0.5c-0.1,0.2-0.2,0.3-0.3,0.5
	l-2.4-0.7l0.1-0.3c0-0.1,0-0.2,0-0.3c0.4,0.1,0.8,0.1,1.1,0.1c0.1-0.4,0.2-0.7,0.3-1.1c0.1-0.2-0.1-0.4-0.3-0.5
	c-0.6-0.6-1.5-0.8-2.4-0.6c-0.1,0-0.2,0-0.3,0.2c-0.2,0.3-0.3,0.7-0.4,1.1c0.3,0.2,0.7,0.4,1,0.5l-0.2,0.2l-0.1,0.3l-2.4-0.7
	c0-0.2,0-0.4,0-0.6c0.4,0.1,0.7,0.1,1.1,0.1c0.1-0.4,0.2-0.8,0.3-1.2c-0.2-0.3-0.4-0.6-0.8-0.7c-0.6-0.4-1.4-0.4-2.1-0.2
	c-0.2,0.4-0.3,0.8-0.4,1.2c0.3,0.2,0.6,0.3,0.9,0.6c-0.1,0.2-0.2,0.3-0.2,0.5c-0.8-0.2-1.6-0.5-2.5-0.7c0-0.2,0-0.4,0-0.6
	c0.4,0.1,0.7,0.1,1.1,0.1c0.1-0.4,0.2-0.8,0.3-1.2c-0.5-0.7-1.3-1.1-2.2-1.1c-0.2,0-0.5,0-0.7,0.2c-0.2,0.4-0.3,0.7-0.4,1.1
	c0.3,0.2,0.6,0.4,0.9,0.5c-0.1,0.2-0.2,0.4-0.3,0.6l-2.4-0.7c0-0.2,0.1-0.4,0.1-0.6c0.4,0.1,0.7,0.1,1.1,0.1
	c0.1-0.4,0.2-0.8,0.3-1.2c-0.1-0.2-0.3-0.4-0.5-0.6c-0.6-0.5-1.4-0.6-2.2-0.4c-0.1,0-0.2,0-0.2,0.1c-0.2,0.3-0.3,0.7-0.4,1.1
	c0.3,0.2,0.7,0.4,1,0.5c-0.1,0.2-0.2,0.4-0.3,0.6c-0.7-0.2-1.4-0.4-2.1-0.6c-0.5-0.2-1.1-0.2-1.6,0.1c-0.6,0.5-0.9,1.3-1.6,1.6
	c-0.4,0.2-0.8,0.2-1.2,0.2c-2.1,0-4.3,0-6.4-0.1c-2.4,0-4.8,0-7.2-0.1c-1.7,0-3.4,0-5.2,0c-2.3-0.1-4.7-0.1-7-0.1
	c-2-0.1-4.1-0.1-6.1-0.1s-4.3-0.1-6.5-0.1s-4.6-0.1-6.9-0.1c-2.6-0.1-5.2-0.1-7.8-0.1c-2.2-0.1-4.4,0-6.6-0.1c-0.5,0.1-1,0-1.4-0.2
	c-0.5-0.2-0.8-0.7-0.8-1.2c0-0.8,0.3-1.5,0.7-2.2c0.8-1.5,1.4-3,1.9-4.6c0,0.1,0,0.3,0,0.3c0.2,0,0.3-0.2,0.4-0.3v-0.1l0.3,0.1v0.2
	c0.2,0.3,0.4,0.5,0.5,0.8c0.1-0.1,0.2-0.2,0.2-0.4c0.2-0.6,0.3-1.2,0.4-1.8c0-0.2,0-0.3-0.1-0.5c-0.3,0.2-0.7,0.4-0.9,0.7h-0.3
	c0-0.1,0-0.2,0-0.3s0-0.1,0-0.2h-0.2L83.6,97c0.1-1,0.1-1.9-0.2-2.9c-0.4-1.6-1.4-2.9-2.8-3.8c-1.1-0.6-2.2-0.9-3.4-1
	c-2-0.1-3.9,0.2-5.8,0.8c-1.4,0.4-2.7,0.9-4,1.4c-1.5,0.7-3.2,1.2-4.9,1.4c-1.8,0.2-3.7,0-5.4-0.6c-1.2-0.5-2.5-1-3.7-1.6
	c-2.4-1.2-4.9-2.4-7.4-3.4c-2.9-1.2-6-2-9.1-2.1c-2.5-0.1-5,0.5-7.1,1.7c-2.1,1.2-3.9,2.8-5.3,4.8c-0.6,0.9-1.1,1.8-1.4,2.8
	c-0.6,1.8-1,3.6-1.2,5.5c-0.3,2.7-0.5,5.3-0.5,8c0,0.5,0,1,0,1.5c-0.1-0.1-0.1-0.3-0.3-0.3c0,0.6,0,1.3,0,1.9c0.2,0,0.2-0.1,0.3-0.3
	c0,1.5,0,3.1,0.1,4.6c0,3.3,0.5,6.5,1.3,9.7c0.4,1.5,1.1,2.9,2,4.1c1.4,1.8,3.2,3.2,5.3,4.3c1.6,0.8,3.3,1.3,5.1,1.5
	c3,0.2,6.1-0.2,9-1.2c3.1-1.1,6.2-2.4,9.1-3.9c0.9-0.4,1.8-0.8,2.8-1.1c1.6-0.6,3.2-0.9,4.9-1c1.9,0,3.9,0.5,5.7,1.2
	c1.3,0.6,2.7,1.1,4.1,1.5c2.2,0.8,4.5,1.1,6.9,0.9c1.6-0.1,3.1-0.7,4.3-1.8c0.6-0.5,0.8-1.3,0.8-2c-0.1-0.8-0.6-1.6-1.3-2
	c-0.9-0.5-2-0.9-3-1.2c-1.3-0.4-2.5-1-3.5-1.9c-0.4-0.3-0.8-0.6-1.1-1c-0.8-1-1.3-2.2-1.3-3.5c0.1-1.1,0.7-2.1,1.6-2.7
	c0.7-0.5,1.6-0.8,2.5-0.9c1.9,0,3.8-0.1,5.7-0.1c1.1,0,2.3,0,3.4,0c2.4-0.1,4.7,0,7-0.1c1.3,0,2.5,0,3.8,0c2.3-0.1,4.6-0.1,6.8-0.1
	c2.1-0.1,4.2,0,6.2-0.1c1.9,0,3.7,0,5.6-0.1s3.6,0,5.4-0.1c2.4-0.1,4.8,0,7.2-0.1c1.9,0,3.8,0,5.6-0.1s3.9,0,5.9-0.1
	c1.2,0,2.5,0,3.8,0c2.1-0.1,4.1,0.1,6.1,0.8c1.2,0.4,2.4,0.9,3.6,1.3c1.5,0.6,3.1,0.9,4.8,0.9c1-0.1,2-0.3,3-0.8
	c0.4-0.2,0.7-0.5,1.2-0.5c1.1,0.1,1.8,1,2.7,1.4c0.9,0.4,1.9,0.5,2.8,0.2c1-0.3,1.8-1.1,2.2-2c0.3-0.8,0.3-1.7,0-2.4
	c-0.2-0.4-0.6-0.8-1.1-1c0-0.1,0.1-0.2,0.1-0.4c0-0.1,0-0.2,0-0.3c0.4,0.1,0.8,0.1,1.1,0.1c0.1-0.4,0.2-0.8,0.3-1.1L169.5,109.8z"/>
<path class="st0" d="M9.2,49.5c0.5,0.1,1-0.1,1.5-0.3c0.6-0.4,1-1.3,1-3.1s-0.4-2.7-1-3.1c-0.4-0.3-1-0.4-1.5-0.3V49.5z M9.2,39.5
	c0.5,0,1-0.1,1.5-0.3c0.6-0.4,1-1.1,1-2.7s-0.4-2.3-1-2.7c-0.4-0.3-1-0.4-1.5-0.3V39.5z M5.9,52.8V30.2h2.9c1.6-0.1,3.2,0.3,4.5,1.3
	c1,1,1.5,2.4,1.5,4.7c0,0.9-0.1,1.8-0.4,2.6c-0.4,0.8-1,1.4-1.6,2c1,0.6,1.7,1.6,1.9,2.8c0.3,0.9,0.4,1.8,0.4,2.8
	c0.1,1.5-0.3,3-1.1,4.4c-0.9,1.3-2.5,2.1-4.1,2L5.9,52.8z"/>
<rect x="19.9" y="30.2" class="st0" width="3.3" height="22.6"/>
<polygon class="st0" points="28.4,30.2 31.7,30.2 31.7,49.7 36.1,49.7 36.1,52.8 28.4,52.8 "/>
<polygon class="st0" points="40.2,30.2 43.6,30.2 43.6,49.7 48,49.7 48,52.8 40.2,52.8 "/>
<polygon class="st0" points="56,37.4 56.1,37.6 56.1,37.6 56.2,37.4 57.9,30.2 61.1,30.2 57.8,43.2 57.8,52.8 54.4,52.8 54.4,43.2 
	51.1,30.2 54.3,30.2 "/>
<path class="st0" d="M123.8,39.9c0.6,0,1.1-0.1,1.6-0.5c0.7-0.8,1-1.8,0.9-2.9c0.1-1-0.2-2.1-0.9-2.9c-0.4-0.3-1-0.5-1.6-0.5V39.9z
	 M126.4,52.5l-1.7-9.5h-0.9v9.5h-3.3V29.9h3.3c4,0,5.6,2.2,5.6,6.5c0,2.2-0.6,4.3-1.8,5.1l2.1,10.9H126.4z"/>
<path class="st0" d="M139,37.3l-0.1-0.6h-0.2l-0.1,0.6l-0.9,7.1h2.3L139,37.3z M133.4,52.5l3.4-22.6h4.1l3.4,22.6h-3.2l-0.6-4.6
	h-3.2l-0.6,4.6H133.4z"/>
<polygon class="st0" points="152.5,37.1 152.6,37.4 152.6,37.4 152.7,37.1 154.4,29.9 157.6,29.9 154.3,42.9 154.3,52.5 150.9,52.5 
	150.9,42.9 147.6,29.9 150.8,29.9 "/>
<polygon class="st0" points="162,38.2 161.5,29.9 164.7,29.9 164.3,38.2 "/>
<path class="st0" d="M174.8,36c0-0.7-0.1-1.5-0.2-2.2c-0.2-0.6-0.5-1.1-1.1-1.1c-0.9,0-1.1,0.9-1.1,2.2c0.1,0.9,0.4,1.7,0.8,2.4
	c0.5,0.9,1.1,1.8,1.8,2.7c0.8,1.1,1.5,2.3,2.1,3.4c0.6,1.1,1,2.3,1,3.5c0.1,1.4-0.2,2.8-1,4c-0.8,1.2-2.2,1.8-3.7,1.7
	c-2.1,0-3.3-0.8-4-2c-0.6-1.4-0.9-3-0.8-4.6l3.3-0.3c0,0.9,0.1,1.8,0.3,2.6c0.2,0.7,0.6,1.2,1.3,1.2c1,0,1.4-1,1.4-2.5
	c-0.1-0.9-0.4-1.7-0.9-2.5c-0.3-0.4-0.5-0.9-0.9-1.4c-0.6-0.9-1.4-2-2.1-3.1c-0.7-1.1-1.3-2.3-1.6-3.5c-0.2-0.6-0.3-1.2-0.3-1.8
	c0-1.3,0.3-2.5,1-3.6c0.8-1.1,2-1.7,3.4-1.7c1.6-0.2,3.1,0.6,3.8,2c0.6,1.3,0.9,2.6,0.8,4L174.8,36z"/>
<text transform="matrix(1 0 0 1 53.1104 74.5316)" class="st1 st2 st3">F</text>
<text transform="matrix(1 0 0 1 57.9103 74.5316)" class="st1 st2 st3">I</text>
<text transform="matrix(1 0 0 1 60.8803 74.5316)" class="st1 st2 st3">N</text>
<text transform="matrix(1 0 0 1 67.1303 74.5316)" class="st1 st2 st3">E</text>
<text transform="matrix(1 0 0 1 72.4703 74.5316)" class="st1 st2 st3">S</text>
<text transform="matrix(1 0 0 1 77.5903 74.5316)" class="st1 st2 st3">T</text>
<text transform="matrix(1 0 0 1 85.0803 74.5316)" class="st1 st2 st3">Q</text>
<text transform="matrix(1 0 0 1 91.5603 74.5316)" class="st1 st2 st3">U</text>
<text transform="matrix(1 0 0 1 97.6303 74.5316)" class="st1 st2 st3">A</text>
<text transform="matrix(1 0 0 1 103.5203 74.5316)" class="st1 st2 st3">L</text>
<text transform="matrix(1 0 0 1 108.0403 74.5316)" class="st1 st2 st3">I</text>
<text transform="matrix(1 0 0 1 111.0103 74.5316)" class="st1 st2 st3">T</text>
<text transform="matrix(1 0 0 1 115.8303 74.5316)" class="st1 st2 st3">Y</text>
<text transform="matrix(1 0 0 1 67.5403 10.7616)" class="st1 st2 st3">E</text>
<text transform="matrix(1 0 0 1 72.8803 10.7616)" class="st1 st2 st3">S</text>
<text transform="matrix(1 0 0 1 78.0003 10.7616)" class="st1 st2 st3">T</text>
<text transform="matrix(1 0 0 1 82.8203 10.7616)" class="st1 st2 st3">.</text>
<text transform="matrix(1 0 0 1 87.9003 10.7616)" class="st1 st2 st3">2</text>
<text transform="matrix(1 0 0 1 92.7803 10.7616)" class="st1 st2 st3">0</text>
<text transform="matrix(1 0 0 1 98.3604 10.7616)" class="st1 st2 st3">2</text>
<text transform="matrix(1 0 0 1 103.2403 10.7616)" class="st1 st2 st3">1</text>
<polygon class="st1" points="96.5,41.6 106.8,41.6 69.8,21.1 88.2,38.7 76.8,38.6 119.3,59.3 "/>
</svg>
